<svg xmlns="http://www.w3.org/2000/svg" version="1.1" xmlns:xlink="http://www.w3.org/1999/xlink" xmlns:svgjs="http://svgjs.dev/svgjs" width="100%" height="100%" viewBox="0 0 1000 600"><rect width="1000" height="600" x="0" y="0" fill="#1b344c"/><g><circle r="166.66666666666666" cx="402.7910715738932" cy="425.01328459934393" fill="#3d4449" transform="matrix(0.529382084276525,0,0,0.529382084276525,0,75.00560287131526)"/><path d="M336.18164389291655 369.044548973688L334.22971914276434 352.2634181355743L376.1961012710358 350.0132826597045L376.1961012710358 456.3931815429972Q376.1961012710358 475.12623713126305 366.08404666260867 487.3257668197141Q355.99910212015584 499.52529650816507 336.8593955422749 500.0132776957031L336.8593955422749 500.0132776957031Q320.4578056278019 500.0132776957031 307.87873501571016 487.13599635789376L307.87873501571016 487.13599635789376L316.8521668532153 475.61421831880114Q317.82812922829135 476.5901806938772 319.7258338464948 477.9185739266196Q321.65064853067264 479.21985709338776 324.17188466628585 480.41269999625854Q326.7202308678734 481.5784328331549 329.70233812505035 482.36462474641064Q332.6573353162529 483.1237065936921 335.88343316719886 483.1237065936921L335.88343316719886 483.1237065936921Q346.04970790757466 483.1237065936921 350.8752996510064 475.5328881208781Q355.70089139443814 467.9149595820898 355.70089139443814 452.48933204269287L355.70089139443814 452.48933204269287L355.70089139443814 386.3136609993398L357.65281614459025 367.77037587289425L336.18164389291655 369.044548973688ZM434.7538437756006 426.1383479156387L434.7538437756006 498.35956367126863L414.2586338990029 498.35956367126863L414.2586338990029 372.4604172864543L411.3307467737747 351.9652074098566L497.7034169680078 351.9652074098566L495.7514922178557 367.58060541107386L432.80191902544846 367.58060541107386L434.7538437756006 386.1238905375194L434.7538437756006 411.98689347703555L487.4558120297089 411.98689347703555L487.4558120297089 426.1383479156387L434.7538437756006 426.1383479156387Z " fill="white" transform="matrix(0.529382084276525,0,0,0.529382084276525,0,75.00560287131526)"/><path d="M673.5053594049203 371.08471155628547L672.0767879475152 358.80296527664984L702.7910742817253 357.1561398465856L702.7910742817253 435.0132842751646Q702.7910742817253 448.7236020122054 695.390280481557 457.6521736209874Q688.0093279516307 466.5807452297694 674.0013911609637 466.9378880941207L674.0013911609637 466.9378880941207Q661.9974226647124 466.9378880941207 652.7910732725461 457.51328472929526L652.7910732725461 457.51328472929526L659.3585337225613 449.08074487655665Q660.0728194512639 449.7950306052592 661.4617083681856 450.7672528471044Q662.8704385553489 451.7196338187078 664.7156766878305 452.5926497093443Q666.5807560905539 453.445824329739 668.763295817145 454.0212211667494Q670.9259942734944 454.57677673351805 673.2871054322612 454.57677673351805L673.2871054322612 454.57677673351805Q680.7275817729129 454.57677673351805 684.2593278759423 449.02122106583147Q687.7910739789716 443.44582412790317 687.7910739789716 432.15614136035435L687.7910739789716 432.15614136035435L687.7910739789716 383.72360070027247L689.2196454363766 370.15217185492384L673.5053594049203 371.08471155628547ZM744.9339322751763 388.9418547738495L744.9339322751763 465.72757060937465L731.3625034298277 465.72757060937465L731.3625034298277 390.3704262312546L744.9339322751763 388.9418547738495ZM730.9259954845095 372.8704258780419L730.9259954845095 358.58471130399073L745.3704402204945 358.58471130399073L745.3704402204945 372.8704258780419L730.9259954845095 372.8704258780419ZM787.7910759973299 405.4497916149753L787.7910759973299 465.72757060937465L774.2196471519813 465.72757060937465L774.2196471519813 387.1561404520931L787.7910759973299 385.727568994688L787.7910759973299 398.80296608399317L792.1561554505122 391.1640770409241Q793.4259967459834 390.29106115028765 795.3704412296737 389.37836271916774Q797.2950444431223 388.44582301780605 799.7156794126143 387.69185474862Q802.156155652348 386.937886479434 804.9339334861913 386.4418547233905Q807.7117113200346 385.9458229673471 810.6482193158118 385.9458229673471L810.6482193158118 385.9458229673471Q818.6442512232321 385.9458229673471 823.6442513241501 389.8347119347277Q828.644251425068 393.7236009021083 830.15218796344 399.79502959608004L830.15218796344 399.79502959608004L835.5688547394344 391.44185482430845Q838.0688547898934 389.4378865298929 842.6521882157349 387.69185474862Q847.2156803713345 385.9458229673471 853.1482201736142 385.9458229673471L853.1482201736142 385.9458229673471Q858.5847282198503 385.9458229673471 862.4339346467474 387.771219829587Q866.2831410736445 389.57677542158507 868.7632998538618 393.00931517340575Q871.2236173638372 396.4418549252264 872.3545697676162 401.3029661344521Q873.5053634416371 406.1640773436779 873.5053634416371 412.1561409566827L873.5053634416371 412.1561409566827L873.5053634416371 465.72757060937465L859.9339345962885 465.72757060937465L859.9339345962885 412.87042668538527Q859.9339345962885 409.02122025848814 859.3982202997615 406.1243948031944Q858.8625060032347 403.22756934790067 857.5331408970382 401.26328359396865Q856.2236170610835 399.29899784003663 854.0013947940089 398.3267755981915Q851.7990137971759 397.374394626588 848.5053629370475 397.374394626588L848.5053629370475 397.374394626588Q846.4418708319067 397.374394626588 844.1799660243487 398.0886803552906Q841.9379024870323 398.80296608399317 839.6561564092325 399.9736010282557Q837.3545690611909 401.16407724275996 835.1918706048415 402.69185505137375Q833.0093308782504 404.2196328599876 831.0847276648018 405.8069344793266L831.0847276648018 405.8069344793266Q831.2831403672191 407.87042658446734 831.3228229077026 409.259315501389Q831.3625054481861 410.6482044183106 831.3625054481861 412.87042668538527L831.3625054481861 412.87042668538527L831.3625054481861 465.72757060937465L817.7910766028374 465.72757060937465L817.7910766028374 412.87042668538527Q817.7910766028374 405.15217256134923 815.2117114714115 401.26328359396865Q812.6521876102273 397.374394626588 806.0053620792452 397.374394626588L806.0053620792452 397.374394626588Q803.8625048931375 397.374394626588 801.4418699236455 398.0093152743236Q799.0013936839117 398.664077192301 796.6204412549032 399.79502959608004Q794.219647555653 400.94582327010085 791.9379014778531 402.41407726798946Q789.6561554000533 403.8624899956363 787.7910759973299 405.4497916149753L787.7910759973299 405.4497916149753ZM916.3625071637907 405.4497916149753L916.3625071637907 465.72757060937465L902.791078318442 465.72757060937465L902.791078318442 387.1561404520931L916.3625071637907 385.727568994688L916.3625071637907 398.80296608399317L920.727586616973 391.1640770409241Q921.9974279124443 390.29106115028765 923.9418723961345 389.37836271916774Q925.8664756095831 388.44582301780605 928.2871105790751 387.69185474862Q930.7275868188088 386.937886479434 933.505364652652 386.4418547233905Q936.2831424864954 385.9458229673471 939.2196504822726 385.9458229673471L939.2196504822726 385.9458229673471Q947.2156823896929 385.9458229673471 952.2156824906109 389.8347119347277Q957.2156825915288 393.7236009021083 958.7236191299008 399.79502959608004L958.7236191299008 399.79502959608004L964.1402859058952 391.44185482430845Q966.6402859563542 389.4378865298929 971.2236193821957 387.69185474862Q975.7871115377953 385.9458229673471 981.719651340075 385.9458229673471L981.719651340075 385.9458229673471Q987.1561593863111 385.9458229673471 991.0053658132082 387.771219829587Q994.8545722401053 389.57677542158507 997.3347310203226 393.00931517340575Q999.795048530298 396.4418549252264 1000.9260009340771 401.3029661344521Q1002.0767946080979 406.1640773436779 1002.0767946080979 412.1561409566827L1002.0767946080979 412.1561409566827L1002.0767946080979 465.72757060937465L988.5053657627492 465.72757060937465L988.5053657627492 412.87042668538527Q988.5053657627492 409.02122025848814 987.9696514662223 406.1243948031944Q987.4339371696955 403.22756934790067 986.104572063499 401.26328359396865Q984.7950482275443 399.29899784003663 982.5728259604697 398.3267755981915Q980.3704449636367 397.374394626588 977.0767941035082 397.374394626588L977.0767941035082 397.374394626588Q975.0133019983676 397.374394626588 972.7513971908094 398.0886803552906Q970.5093336534932 398.80296608399317 968.2275875756933 399.9736010282557Q965.9260002276516 401.16407724275996 963.7633017713023 402.69185505137375Q961.580762044711 404.2196328599876 959.6561588312626 405.8069344793266L959.6561588312626 405.8069344793266Q959.8545715336799 407.87042658446734 959.8942540741633 409.259315501389Q959.9339366146469 410.6482044183106 959.9339366146469 412.87042668538527L959.9339366146469 412.87042668538527L959.9339366146469 465.72757060937465L946.3625077692983 465.72757060937465L946.3625077692983 412.87042668538527Q946.3625077692983 405.15217256134923 943.7831426378723 401.26328359396865Q941.2236187766881 397.374394626588 934.576793245706 397.374394626588L934.576793245706 397.374394626588Q932.4339360595983 397.374394626588 930.0133010901063 398.0093152743236Q927.5728248503725 398.664077192301 925.191872421364 399.79502959608004Q922.7910787221138 400.94582327010085 920.509332644314 402.41407726798946Q918.2275865665141 403.8624899956363 916.3625071637907 405.4497916149753L916.3625071637907 405.4497916149753ZM1056.3625099894925 456.3029672445492L1060.0728275246975 439.7355065926982L1079.2990183889415 387.1561404520931L1092.1561615055875 385.9458229673471L1062.5728275751562 466.9378880941207Q1060.3704465783235 472.9497929773672 1057.7513989064141 478.8624915094051Q1055.1521925047464 484.7950313116847 1051.858541644618 489.4775710887348Q1048.5847320547314 494.1601108657849 1044.6164780063837 497.07677759132036Q1040.648223958036 500.0132855870976 1035.7871127488102 500.0132855870976L1035.7871127488102 500.0132855870976Q1032.1561602945721 500.0132855870976 1028.6442554617847 498.5450315892089Q1025.152191899239 497.07677759132036 1022.2156839034618 494.5172537301362L1022.2156839034618 494.5172537301362L1027.4339379770386 486.8783646870671Q1028.6442554617847 487.73153930746184 1030.2117158108822 488.4458250361644Q1031.7990174302213 489.160110764867 1033.5053666710105 489.160110764867L1033.5053666710105 489.160110764867Q1035.8664778297773 489.160110764867 1038.0688588266103 487.3347139026271Q1040.2910810936849 485.50931704038726 1042.334731928584 482.652174125577Q1044.358541493241 479.79503121076675 1046.104573274514 476.223602567254Q1047.8704463260287 472.65217392374115 1049.2990177834338 469.08074528022837L1049.2990177834338 469.08074528022837L1019.4974298803437 387.1561404520931L1033.0688587256923 385.9458229673471L1052.6521924542876 439.7355065926982L1056.3625099894925 456.3029672445492ZM1174.219655225415 412.87042668538527L1174.219655225415 465.72757060937465L1159.219654922661 465.72757060937465L1159.219654922661 373.58471160674446L1157.0767977365535 358.58471130399073L1220.2910847267299 358.58471130399073L1218.8625132693248 370.01328296323163L1172.7910837680097 370.01328296323163L1174.219655225415 383.58471180858027L1174.219655225415 402.51328361919815L1212.7910845753531 402.51328361919815L1212.7910845753531 412.87042668538527L1174.219655225415 412.87042668538527ZM1281.3625145307988 452.8704274927286L1282.791085988204 465.72757060937465L1267.79108568545 465.72757060937465L1267.79108568545 454.16011005844155L1261.0847363437429 462.1561419658619Q1259.854577588755 463.08868166722357 1258.2871172396578 463.9418562876183Q1256.7196568905606 464.795030908013 1255.1125140009797 465.4696340962321Q1253.505371111399 466.1640785546929 1251.898228221818 466.5410626892859Q1250.2910853322373 466.9378880941207 1248.9418789557992 466.9378880941207L1248.9418789557992 466.9378880941207Q1243.5847359905301 466.9378880941207 1238.683942240821 465.2712213938147Q1233.7831484911117 463.584713423267 1230.11251349639 460.330745103622Q1226.4418785016687 457.07677678397704 1224.2593387750774 452.2553481152347Q1222.0767990484865 447.43391944649244 1222.0767990484865 441.1640780501033L1222.0767990484865 441.1640780501033Q1222.0767990484865 434.51725251912114 1224.755370531121 429.6164587694119Q1227.4339420137555 424.73550628994445 1231.6204500347621 421.4815379702994Q1235.7871167855271 418.22756965065446 1240.926005778137 416.6204267610737Q1246.084736040989 415.01328387149294 1251.00537106094 415.01328387149294L1251.00537106094 415.01328387149294Q1255.0728314604962 415.01328387149294 1258.187910888449 415.44979181681117Q1261.2831490461604 415.86645849188767 1263.4260062322678 416.44185532889804L1263.4260062322678 416.44185532889804Q1265.9260062827266 417.07677597663366 1267.79108568545 417.87042678630314L1267.79108568545 417.87042678630314L1267.79108568545 415.3704267358442Q1267.79108568545 411.1640774445958 1267.2950539294065 407.7910615035004Q1266.799022173363 404.4378868326467 1265.2514030945076 402.1164582143634Q1263.7236252858938 399.79502959608004 1260.8267998306 398.58471211133406Q1257.9299743753065 397.374394626588 1253.1482282470477 397.374394626588L1253.1482282470477 397.374394626588Q1249.2990218201505 397.374394626588 1245.7275931766376 397.910108923115Q1242.1561645331249 398.4458232196419 1239.3585454290399 399.08074386737746L1239.3585454290399 399.08074386737746Q1236.0847358391532 399.874394677047 1233.2871167350681 400.72756929744173L1233.2871167350681 400.72756929744173L1228.148227742458 391.1640770409241Q1231.2831484406524 389.735505583519 1235.2910850294836 388.5847119094982L1235.2910850294836 388.5847119094982Q1238.7236247813044 387.5926483974113 1243.4260058285963 386.7593150472583Q1248.14822814613 385.9458229673471 1253.8625139757503 385.9458229673471L1253.8625139757503 385.9458229673471Q1262.0767998558294 385.9458229673471 1267.4339428210988 388.14820396417997Q1272.791085786368 390.3704262312546 1275.8664826738373 394.3783628200856Q1278.9418795613065 398.36645813867494 1280.1521970460526 403.9815376170867Q1281.3625145307988 409.5767758252568 1281.3625145307988 416.44185532889804L1281.3625145307988 416.44185532889804L1281.3625145307988 452.8704274927286ZM1267.79108568545 446.1640781510212L1267.79108568545 427.6521730154799Q1265.7871173910344 427.3743952320956 1263.5053713132347 427.07677617846946L1263.5053713132347 427.07677617846946Q1261.580768099786 426.87836347605213 1259.0807680493272 426.660109503393Q1256.5807679988684 426.4418555307339 1253.8625139757503 426.4418555307339L1253.8625139757503 426.4418555307339Q1249.8545773869191 426.4418555307339 1246.541085256549 427.2355063404034Q1243.2275931261788 428.00931587983115 1240.787116886445 429.7553476611041Q1238.366481916953 431.52122071261874 1236.997434270273 434.29899854646203Q1235.648227893835 437.0767763803053 1235.648227893835 441.0847129691364L1235.648227893835 441.0847129691364Q1235.648227893835 444.2989987482979 1236.7196564868887 446.937887690449Q1237.7910850799426 449.5767766326001 1239.656164482666 451.52122111629046Q1241.5014026151475 453.445824329739 1244.04108520609 454.47757038230935Q1246.5807677970324 455.50931643487974 1249.4974345225678 455.50931643487974L1249.4974345225678 455.50931643487974Q1250.8664821692478 455.50931643487974 1252.3942599778616 455.11249103004496Q1253.9418790567172 454.735506895452 1255.469656865331 454.08074497747464Q1256.9974346739448 453.445824329739 1258.5450537528004 452.5926497093443Q1260.0728315614142 451.7196338187078 1261.4418792080942 450.86645919831307L1261.4418792080942 450.86645919831307Q1264.6561649872556 448.80296709317236 1267.79108568545 446.1640781510212L1267.79108568545 446.1640781510212ZM1340.0133093653758 398.0093152743236L1340.0133093653758 398.0093152743236Q1337.1561664505653 398.0093152743236 1334.3585473464805 399.16010894834443Q1331.5807695126368 400.2910613521235 1329.0014043812112 402.2355058358138Q1326.441880520027 404.16010904926236 1324.1402931719854 406.71963291044653Q1321.8585470941857 409.29899804187244 1319.933943880737 412.1561409566827L1319.933943880737 412.1561409566827L1319.933943880737 465.72757060937465L1306.3625150353882 465.72757060937465L1306.3625150353882 387.1561404520931L1319.933943880737 385.727568994688L1319.933943880737 401.79899789049557L1327.0768011677624 389.2989976382008Q1328.0093408691241 388.72360080119034 1329.3982297860457 388.12836269393824Q1330.7871187029673 387.51328331644436 1332.5728330247239 387.0569341008844Q1334.3585473464805 386.5807436150827 1336.4021981813794 386.2632832912149Q1338.4260077460367 385.9458229673471 1340.5688649321442 385.9458229673471L1340.5688649321442 385.9458229673471Q1343.7831507113056 385.9458229673471 1345.9656904378971 386.5212198043575Q1348.1482301644883 387.07677537112613 1349.2196587575418 387.5926483974113L1349.2196587575418 387.5926483974113L1348.5053730288391 399.4378867317288Q1347.4339444357856 399.08074386737746 1345.2910872496777 398.5450295708506Q1343.1482300635703 398.0093152743236 1340.0133093653758 398.0093152743236ZM1397.1561676615806 398.0093152743236L1397.1561676615806 398.0093152743236Q1394.29902474677 398.0093152743236 1391.5014056426853 399.16010894834443Q1388.7236278088417 400.2910613521235 1386.144262677416 402.2355058358138Q1383.584738816232 404.16010904926236 1381.2831514681902 406.71963291044653Q1379.0014053903901 409.29899804187244 1377.0768021769418 412.1561409566827L1377.0768021769418 412.1561409566827L1377.0768021769418 465.72757060937465L1363.505373331593 465.72757060937465L1363.505373331593 387.1561404520931L1377.0768021769418 385.727568994688L1377.0768021769418 401.79899789049557L1384.2196594639672 389.2989976382008Q1385.152199165329 388.72360080119034 1386.5410880822506 388.12836269393824Q1387.9299769991721 387.51328331644436 1389.7156913209287 387.0569341008844Q1391.5014056426853 386.5807436150827 1393.5450564775838 386.2632832912149Q1395.5688660422416 385.9458229673471 1397.711723228349 385.9458229673471L1397.711723228349 385.9458229673471Q1400.9260090075104 385.9458229673471 1403.108548734102 386.5212198043575Q1405.2910884606931 387.07677537112613 1406.3625170537466 387.5926483974113L1406.3625170537466 387.5926483974113L1405.648231325044 399.4378867317288Q1404.57680273199 399.08074386737746 1402.4339455458826 398.5450295708506Q1400.2910883597751 398.0093152743236 1397.1561676615806 398.0093152743236ZM1467.5728357495077 449.6561417135671L1475.3704549545105 456.52122121720834Q1473.1482326874361 458.8029672950082 1470.5093437452847 460.7275705084568Q1467.8704548031337 462.65217372190534 1464.6561690239723 464.041062638827Q1461.441883244811 465.44979282599036 1457.5331530071885 466.18391982493466Q1453.6442640398077 466.9378880941207 1448.8625179115493 466.9378880941207L1448.8625179115493 466.9378880941207Q1439.3585494657568 466.9378880941207 1432.6522001240492 463.584713423267Q1425.9260095121003 460.2315387524133 1421.6799776803682 454.57677673351805Q1417.4339458486365 448.9418559848645 1415.4696600947045 441.66010980614675Q1413.5053743407725 434.378363627429 1413.5053743407725 426.4418555307339L1413.5053743407725 426.4418555307339Q1413.5053743407725 421.362490348849 1414.4379140421338 416.4021727884146Q1415.3704537434955 411.4418552279801 1417.2156918759774 406.93788688310565Q1419.0807712787005 402.4339185382312 1421.858549112544 398.58471211133406Q1424.6561682166289 394.73550568443693 1428.3664857518338 391.9378865803519Q1432.0768032870387 389.1601087465086 1436.759343064089 387.55296585692787Q1441.441882841139 385.9458229673471 1447.0768035897927 385.9458229673471L1447.0768035897927 385.9458229673471Q1454.7950577138286 385.9458229673471 1460.4299784624823 388.44582301780605Q1466.0847404813771 390.945823068265 1469.7950580165825 395.44979141313945Q1473.5053755517874 399.93391848777225 1475.2910898735436 406.22360115440307Q1477.0768041953002 412.51328382103395 1477.0768041953002 420.152172864103L1477.0768041953002 420.152172864103Q1477.0768041953002 422.3743951311776 1476.937915303608 425.0132840733288Q1476.7990264119157 427.6521730154799 1476.5014073582897 430.0132841742467L1476.5014073582897 430.0132841742467L1427.0768031861212 430.0132841742467Q1427.0768031861212 435.37042713951587 1428.5450571840097 440.01328437608254Q1430.0133111818982 444.65614161264915 1432.6522001240492 448.1283639049533Q1435.2910890662006 451.58074492701564 1439.0410891418887 453.54503068094766Q1442.7910892175773 455.50931643487974 1447.433946454144 455.50931643487974L1447.433946454144 455.50931643487974Q1451.9974386097438 455.50931643487974 1455.3902958210806 454.8347132466606Q1458.7831530324179 454.16011005844155 1461.2236292721518 453.1878878165964Q1463.6442642416437 452.235506844993 1465.191883320499 451.2236020626644Q1466.7196611291129 450.23153855057745 1467.5728357495077 449.6561417135671L1467.5728357495077 449.6561417135671ZM1437.433946252308 419.2989982437083L1463.5053753499515 419.2989982437083Q1463.5847404309184 418.50534743403875 1463.60458170116 417.731537894611Q1463.6442642416437 416.9378870849415 1463.6442642416437 416.1640775455137L1463.6442642416437 416.1640775455137Q1463.6442642416437 412.0767758757157 1462.711724540282 408.6640773941368Q1461.7990261091618 405.2315376423162 1459.894264165955 402.69185505137375Q1458.00934349299 400.15217246043136 1455.072835497213 398.7236010030262Q1452.1561687716776 397.2950295456211 1448.1482321828466 397.2950295456211L1448.1482321828466 397.2950295456211Q1443.3664860545878 397.2950295456211 1439.9736288432505 398.8426486244766Q1436.5807716319132 400.3704264330905 1434.2593430136299 402.7712201323407Q1431.9379143953465 405.15217256134923 1430.549025478425 408.0093154761595Q1429.1402952912617 410.86645839096974 1428.426009562559 413.44582352239564L1428.426009562559 413.44582352239564L1424.7156920273542 421.22360145715686L1437.433946252308 419.2989982437083ZM1512.7910906304282 350.01328255955997L1512.7910906304282 438.86249070206173Q1512.7910906304282 443.5847130195953 1513.326804926955 446.7593162582734Q1513.8625192234822 449.9339194969514 1514.8942652760525 451.89820525088345Q1515.9260113286227 453.86249100481547 1517.4736304074781 454.69582435496847Q1519.001408216092 455.50931643487974 1521.0053765105076 455.50931643487974L1521.0053765105076 455.50931643487974Q1522.5728368596046 455.50931643487974 1523.8625194253177 455.3307450027041Q1525.1522019910308 455.1521735705285 1526.0847416923925 454.8743957871441L1526.0847416923925 454.8743957871441Q1527.156170285446 454.57677673351805 1528.0093449058409 454.2196338691668L1528.0093449058409 454.2196338691668L1532.929979925792 462.87042769456446Q1532.3545830887815 463.44582453157483 1531.1045830635521 464.12042771979395Q1529.8545830383227 464.795030908013 1528.148233797533 465.44979282599036Q1526.4418845567438 466.08471347372597 1524.2593448301527 466.5212214190442Q1522.0768051035616 466.9378880941207 1519.5768050531024 466.9378880941207L1519.5768050531024 466.9378880941207Q1513.1482334947796 466.9378880941207 1509.1402969059486 464.5767769353539Q1505.1522015873588 462.23550704682884 1502.9299793202845 458.1482053770309Q1500.7275983234517 454.08074497747464 1499.9736300542654 448.68391947172194Q1499.2196617850796 443.30693523621096 1499.2196617850796 437.1561414612723L1499.2196617850796 437.1561414612723L1499.2196617850796 365.7275685910163L1497.7910903276743 351.44185401696507L1512.7910906304282 350.01328255955997ZM1555.6482343525818 350.01328255955997L1555.6482343525818 438.86249070206173Q1555.6482343525818 443.5847130195953 1556.1839486491085 446.7593162582734Q1556.7196629456353 449.9339194969514 1557.751408998206 451.89820525088345Q1558.7831550507763 453.86249100481547 1560.3307741296317 454.69582435496847Q1561.858551938246 455.50931643487974 1563.8625202326612 455.50931643487974L1563.8625202326612 455.50931643487974Q1565.4299805817586 455.50931643487974 1566.7196631474712 455.3307450027041Q1568.0093457131843 455.1521735705285 1568.941885414546 454.8743957871441L1568.941885414546 454.8743957871441Q1570.0133140075995 454.57677673351805 1570.8664886279944 454.2196338691668L1570.8664886279944 454.2196338691668L1575.7871236479455 462.87042769456446Q1575.211726810935 463.44582453157483 1573.9617267857057 464.12042771979395Q1572.7117267604763 464.795030908013 1571.0053775196866 465.44979282599036Q1569.2990282788974 466.08471347372597 1567.1164885523062 466.5212214190442Q1564.933948825715 466.9378880941207 1562.4339487752559 466.9378880941207L1562.4339487752559 466.9378880941207Q1556.005377216933 466.9378880941207 1551.9974406281021 464.5767769353539Q1548.0093453095128 462.23550704682884 1545.787123042438 458.1482053770309Q1543.5847420456053 454.08074497747464 1542.830773776419 448.68391947172194Q1542.076805507233 443.30693523621096 1542.076805507233 437.1561414612723L1542.076805507233 437.1561414612723L1542.076805507233 365.7275685910163L1540.6482340498278 351.44185401696507L1555.6482343525818 350.01328255955997ZM1617.076807021002 456.3029672445492L1620.787124556207 439.7355065926982L1640.013315420451 387.1561404520931L1652.870458537097 385.9458229673471L1623.2871246066657 466.9378880941207Q1621.084743609833 472.9497929773672 1618.4656959379236 478.8624915094051Q1615.8664895362558 484.7950313116847 1612.5728386761275 489.4775710887348Q1609.2990290862408 494.1601108657849 1605.330775037893 497.07677759132036Q1601.3625209895454 500.0132855870976 1596.5014097803196 500.0132855870976L1596.5014097803196 500.0132855870976Q1592.8704573260816 500.0132855870976 1589.3585524932942 498.5450315892089Q1585.8664889307483 497.07677759132036 1582.9299809349714 494.5172537301362L1582.9299809349714 494.5172537301362L1588.1482350085485 486.8783646870671Q1589.3585524932942 487.73153930746184 1590.9260128423916 488.4458250361644Q1592.5133144617303 489.160110764867 1594.21966370252 489.160110764867L1594.21966370252 489.160110764867Q1596.5807748612865 489.160110764867 1598.7831558581197 487.3347139026271Q1601.005378125194 485.50931704038726 1603.0490289600934 482.652174125577Q1605.0728385247503 479.79503121076675 1606.8188703060232 476.223602567254Q1608.5847433575382 472.65217392374115 1610.0133148149434 469.08074528022837L1610.0133148149434 469.08074528022837L1580.211726911853 387.1561404520931L1593.7831557572017 385.9458229673471L1613.366489485797 439.7355065926982L1617.076807021002 456.3029672445492Z " fill="white" transform="matrix(0.529382084276525,0,0,0.529382084276525,0,75.00560287131526)"/></g></svg>